# xmcd CD database file
#
# Track frame offsets:
#	150
#	15432
#	31466
#	49005
#	62175
#	78227
#	94240
#	113252
#	137699
#	148871
#	165844
#	175284
#	186232
#	195756
#	215262
#
# Disc length: 2995 seconds
#
# Revision: 3
# Processed by: cddbd v1.5PL3 Copyright (c) Steve Scherf et al.
# Submitted via: CDex 1.50
#
DISCID=bc0bb10f
DTITLE=Grupo Identidad (Cuba) - En Tu Jardin
DYEAR=2003
DGENRE=Salsa
TTITLE0=Son de la loma
TTITLE1=En tu jardin
TTITLE2=Chan chan
TTITLE3=El cuarto de tula
TTITLE4=El carretero
TTITLE5=Solo contigo
TTITLE6=Hasta siempre comandante
TTITLE7=Chencha la gamba
TTITLE8=La mucura
TTITLE9=La vieja molienda
TTITLE10=Maridos majaderos
TTITLE11=Perla marina
TTITLE12=Un traguito
TTITLE13=Guantanamera
TTITLE14=Macumbanchero
EXTD=YEAR: 2003
EXTT0=
EXTT1=
EXTT2=
EXTT3=
EXTT4=
EXTT5=
EXTT6=
EXTT7=
EXTT8=
EXTT9=
EXTT10=
EXTT11=
EXTT12=
EXTT13=
EXTT14=
PLAYORDER=
